<svg xmlns="http://www.w3.org/2000/svg" aria-hidden="true" style="position:absolute;width:0;height:0;overflow:hidden">
<defs>

<symbol id="openeye" viewBox="0 0 24 24">
<path d="M.106 11.553a.997.997 0 0 0 0 .894s.396.789 1.12 1.843a20.553 20.553 0 0 0 1.757 2.218c.894.979 2.004 1.987 3.319 2.8C7.897 20.294 9.808 21 12 21s4.103-.706 5.698-1.692c1.315-.813 2.425-1.821 3.319-2.8a20.678 20.678 0 0 0 1.757-2.218 17.468 17.468 0 0 0 1.12-1.843.997.997 0 0 0 0-.894s-.396-.789-1.12-1.843a20.553 20.553 0 0 0-1.757-2.218c-.894-.979-2.004-1.987-3.319-2.8C16.103 3.706 14.192 3 12 3s-4.103.706-5.698 1.692c-1.315.813-2.425 1.821-3.319 2.8A20.455 20.455 0 0 0 1.226 9.71a17.468 17.468 0 0 0-1.12 1.843zM2.14 12a18.575 18.575 0 0 1 2.319-3.159c.805-.881 1.775-1.756 2.894-2.448C8.703 5.559 10.254 5 12 5s3.297.559 4.646 1.393c1.119.692 2.089 1.567 2.894 2.448A18.701 18.701 0 0 1 21.859 12a18.575 18.575 0 0 1-2.319 3.159c-.805.881-1.775 1.756-2.894 2.448C15.297 18.441 13.746 19 12 19s-3.297-.559-4.646-1.393c-1.119-.692-2.089-1.567-2.894-2.448A18.701 18.701 0 0 1 2.14 12zM16 12c0-1.104-.449-2.106-1.172-2.828a3.994 3.994 0 0 0-5.656 0 3.994 3.994 0 0 0 0 5.656 3.994 3.994 0 0 0 5.656 0A3.994 3.994 0 0 0 16 12zm-2 0c0 .553-.223 1.051-.586 1.414S12.553 14 12 14s-1.051-.223-1.414-.586S10 12.553 10 12s.223-1.051.586-1.414S11.447 10 12 10s1.051.223 1.414.586S14 11.447 14 12z"/>
</symbol>

<symbol id="closeeye" viewBox="0 0 24 24">
<path d="M10.128 5.214A7.908 7.908 0 0 1 11.988 5c1.758 0 3.309.559 4.658 1.393 1.119.692 2.089 1.567 2.894 2.448a18.701 18.701 0 0 1 2.318 3.156 16.723 16.723 0 0 1-1.778 2.542 1 1 0 0 0 1.518 1.302 18.991 18.991 0 0 0 2.283-3.37 1 1 0 0 0 .013-.919s-.396-.789-1.12-1.843a20.553 20.553 0 0 0-1.757-2.218c-.894-.979-2.004-1.987-3.319-2.8C16.103 3.706 14.192 3 12.012 3a9.899 9.899 0 0 0-2.34.266 1 1 0 1 0 .456 1.948zm-.101 6.228 2.531 2.531a2.003 2.003 0 0 1-2.531-2.532zM5.983 7.397 8.536 9.95a3.993 3.993 0 0 0-.608 2.266c.036 1.022.463 2.033 1.271 2.785s1.846 1.107 2.868 1.071a3.991 3.991 0 0 0 1.984-.608l2.322 2.322A8.962 8.962 0 0 1 11.989 19c-1.734 0-3.285-.559-4.634-1.393-1.119-.692-2.089-1.567-2.894-2.448a18.701 18.701 0 0 1-2.317-3.155 17.275 17.275 0 0 1 3.841-4.607zm-5.69-5.69 4.271 4.271a19.34 19.34 0 0 0-4.445 5.549.999.999 0 0 0-.013.92s.396.789 1.12 1.843a20.553 20.553 0 0 0 1.757 2.218c.894.979 2.004 1.987 3.319 2.8C7.897 20.294 9.808 21 12.012 21a10.98 10.98 0 0 0 5.815-1.759l4.466 4.466a.999.999 0 1 0 1.414-1.414l-8.876-8.876-.007-.007-4.209-4.21-.024-.024L1.707.293A.999.999 0 1 0 .293 1.707z"/>
</symbol>

<symbol id="close" viewBox="0 0 18 18">
<path d="M10 8.586l-7.071-7.071-1.414 1.414 7.071 7.071-7.071 7.071 1.414 1.414 7.071-7.071 7.071 7.071 1.414-1.414-7.071-7.071 7.071-7.071-1.414-1.414-7.071 7.071z"></path>
</symbol>

<symbol id="dashboard" viewBox="0 0 12 12">
<path id="Vector" d="M0.66 6.66L4.66 6.66C5.03 6.66 5.33 6.36 5.33 6L5.33 0.66C5.33 0.29 5.03 0 4.66 0L0.66 0C0.29 0 0 0.29 0 0.66L0 6C0 6.36 0.29 6.66 0.66 6.66ZM0.66 12L4.66 12C5.03 12 5.33 11.7 5.33 11.33L5.33 8.66C5.33 8.29 5.03 8 4.66 8L0.66 8C0.29 8 0 8.29 0 8.66L0 11.33C0 11.7 0.29 12 0.66 12ZM7.33 12L11.33 12C11.7 12 12 11.7 12 11.33L12 6C12 5.63 11.7 5.33 11.33 5.33L7.33 5.33C6.96 5.33 6.66 5.63 6.66 6L6.66 11.33C6.66 11.7 6.96 12 7.33 12ZM6.66 0.66L6.66 3.33C6.66 3.7 6.96 4 7.33 4L11.33 4C11.7 4 12 3.7 12 3.33L12 0.66C12 0.29 11.7 0 11.33 0L7.33 0C6.96 0 6.66 0.29 6.66 0.66Z" fill-opacity="1.000000" fill-rule="nonzero"/>
</symbol>

<symbol id="busket" viewBox="0 0 32 32">
<path d="M10.667 25.143c-1.678 0-3.033 1.371-3.033 3.047 0 1.678 1.355 3.049 3.033 3.049 1.675 0 3.047-1.371 3.047-3.049 0-1.675-1.371-3.047-3.047-3.047zM1.525 2.286c0 0.839 0.686 1.525 1.522 1.525h1.525l5.486 11.566-2.057 3.717c-1.113 2.043 0.35 4.526 2.667 4.526h16.761c0.839 0 1.522-0.686 1.522-1.522 0-0.839-0.686-1.525-1.522-1.525h-16.761l1.675-3.047h11.351c1.143 0 2.149-0.626 2.667-1.57l5.456-9.89c0.119-0.212 0.189-0.465 0.189-0.734 0-0.838-0.677-1.517-1.514-1.52h-22.553l-1.019-2.181c-0.248-0.518-0.767-0.869-1.369-0.869-0.001 0-0.002 0-0.003 0h-2.503c-0.834 0-1.52 0.686-1.52 1.525zM25.904 25.143c-1.675 0-3.031 1.371-3.031 3.047 0 1.678 1.355 3.049 3.031 3.049s3.047-1.371 3.047-3.049c0-1.675-1.371-3.047-3.047-3.047z"></path>
</symbol>

<symbol id="users" viewBox="0 0 41 32">
<path d="M28.122 27.151v3.881h-27.153v-3.881s0-7.756 13.577-7.756 13.577 7.756 13.577 7.756zM21.335 8.727c0-3.749-3.039-6.788-6.788-6.788s-6.788 3.039-6.788 6.788v0c0 3.749 3.039 6.788 6.788 6.788s6.788-3.039 6.788-6.788v0zM28.006 19.395c2.341 1.825 3.867 4.6 3.994 7.736l0.001 0.020v3.881h7.759v-3.881s0-7.040-11.753-7.756zM26.182 1.94c-0.012-0-0.025-0-0.039-0-1.384 0-2.668 0.428-3.727 1.158l0.022-0.014c1.133 1.566 1.812 3.526 1.812 5.644s-0.679 4.077-1.831 5.672l0.020-0.028c1.037 0.716 2.321 1.143 3.705 1.143 0.014 0 0.027-0 0.041-0h-0.002c3.748 0 6.787-3.039 6.787-6.787s-3.039-6.787-6.787-6.787v0z"></path>
</symbol>

<symbol id="chevron-up" viewBox="0 0 24 24">
<path d="M18.707 14.293l-6-6c-0.391-0.391-1.024-0.391-1.414 0l-6 6c-0.391 0.391-0.391 1.024 0 1.414s1.024 0.391 1.414 0l5.293-5.293 5.293 5.293c0.391 0.391 1.024 0.391 1.414 0s0.391-1.024 0-1.414z"></path>
</symbol>

<symbol id="chevron-down" viewBox="0 0 24 24">
<path d="M5.293 9.707l6 6c0.391 0.391 1.024 0.391 1.414 0l6-6c0.391-0.391 0.391-1.024 0-1.414s-1.024-0.391-1.414 0l-5.293 5.293-5.293-5.293c-0.391-0.391-1.024-0.391-1.414 0s-0.391 1.024 0 1.414z"></path>
</symbol>

<symbol id="menu-burger" viewBox="0 0 24 24">
<path d="M3 13h18c0.552 0 1-0.448 1-1s-0.448-1-1-1h-18c-0.552 0-1 0.448-1 1s0.448 1 1 1zM3 7h18c0.552 0 1-0.448 1-1s-0.448-1-1-1h-18c-0.552 0-1 0.448-1 1s0.448 1 1 1zM3 19h18c0.552 0 1-0.448 1-1s-0.448-1-1-1h-18c-0.552 0-1 0.448-1 1s0.448 1 1 1z"></path>
</symbol>

<symbol id="phone" viewBox="0 0 30 32">
<path fill="#fff" style="fill: var(--color1, #fff)" d="M4.571 0.761c-2.525 0-4.571 2.047-4.571 4.571v0 21.335c0 2.525 2.047 4.571 4.571 4.571v0h9.143c2.525 0 4.571-2.047 4.571-4.571v0-21.335c0-2.525-2.047-4.571-4.571-4.571v0h-9.143zM20.256 8.827c0.276-0.276 0.657-0.446 1.078-0.446s0.802 0.171 1.078 0.446v0l6.094 6.096c0.275 0.276 0.445 0.656 0.445 1.077s-0.17 0.801-0.445 1.077l-6.094 6.096c-0.273 0.26-0.643 0.421-1.051 0.421-0.842 0-1.525-0.683-1.525-1.525 0-0.408 0.16-0.778 0.421-1.052l-0.001 0.001 3.495-3.493h-13.083c-0.842 0-1.525-0.683-1.525-1.525s0.683-1.525 1.525-1.525h13.083l-3.495-3.493c-0.276-0.276-0.446-0.657-0.446-1.078s0.171-0.802 0.446-1.078v0z"></path>
</symbol>

<symbol id="filter" viewBox="0 0 24 24">
<path d="M19.845 4l-6.609 7.814c-0.147 0.173-0.236 0.399-0.236 0.646v6.922l-2-1v-5.922c0.001-0.227-0.077-0.457-0.236-0.646l-6.609-7.814zM22 2h-20c-0.552 0-1 0.448-1 1 0 0.247 0.089 0.473 0.236 0.646l7.764 9.18v6.174c0 0.389 0.222 0.727 0.553 0.894l4 2c0.494 0.247 1.095 0.047 1.342-0.447 0.072-0.146 0.106-0.301 0.105-0.447v-8.174l7.764-9.18c0.357-0.422 0.304-1.053-0.118-1.409-0.189-0.16-0.419-0.238-0.646-0.237z"></path>
</symbol>

<symbol id="add" viewBox="0 0 24 24">
<path d="M5 13h6v6c0 0.552 0.448 1 1 1s1-0.448 1-1v-6h6c0.552 0 1-0.448 1-1s-0.448-1-1-1h-6v-6c0-0.552-0.448-1-1-1s-1 0.448-1 1v6h-6c-0.552 0-1 0.448-1 1s0.448 1 1 1z"></path>
</symbol>

<symbol id="edit" viewBox="0 0 24 24">
<path d="M16.293 2.293l-13.5 13.5c-0.117 0.116-0.21 0.268-0.258 0.444l-1.5 5.5c-0.046 0.163-0.049 0.346 0 0.526 0.145 0.533 0.695 0.847 1.228 0.702l5.5-1.5c0.159-0.042 0.315-0.129 0.444-0.258l13.5-13.5c0.747-0.747 1.121-1.729 1.121-2.707s-0.374-1.96-1.121-2.707-1.729-1.121-2.707-1.121-1.96 0.374-2.707 1.121zM17.707 3.707c0.357-0.357 0.824-0.535 1.293-0.535s0.936 0.178 1.293 0.536 0.535 0.823 0.535 1.292-0.178 0.936-0.535 1.293l-13.312 13.312-3.556 0.97 0.97-3.555z"></path>
</symbol>

<symbol id="delete" viewBox="0 0 24 24">
<path d="M18 7v13c0 0.276-0.111 0.525-0.293 0.707s-0.431 0.293-0.707 0.293h-10c-0.276 0-0.525-0.111-0.707-0.293s-0.293-0.431-0.293-0.707v-13zM17 5v-1c0-0.828-0.337-1.58-0.879-2.121s-1.293-0.879-2.121-0.879h-4c-0.828 0-1.58 0.337-2.121 0.879s-0.879 1.293-0.879 2.121v1h-4c-0.552 0-1 0.448-1 1s0.448 1 1 1h1v13c0 0.828 0.337 1.58 0.879 2.121s1.293 0.879 2.121 0.879h10c0.828 0 1.58-0.337 2.121-0.879s0.879-1.293 0.879-2.121v-13h1c0.552 0 1-0.448 1-1s-0.448-1-1-1zM9 5v-1c0-0.276 0.111-0.525 0.293-0.707s0.431-0.293 0.707-0.293h4c0.276 0 0.525 0.111 0.707 0.293s0.293 0.431 0.293 0.707v1zM9 11v6c0 0.552 0.448 1 1 1s1-0.448 1-1v-6c0-0.552-0.448-1-1-1s-1 0.448-1 1zM13 11v6c0 0.552 0.448 1 1 1s1-0.448 1-1v-6c0-0.552-0.448-1-1-1s-1 0.448-1 1z"></path>
</symbol>

<symbol id="calendar" viewBox="0 0 24 24">
<path d="M7 2v1h-2c-0.828 0-1.58 0.337-2.121 0.879s-0.879 1.293-0.879 2.121v14c0 0.828 0.337 1.58 0.879 2.121s1.293 0.879 2.121 0.879h14c0.828 0 1.58-0.337 2.121-0.879s0.879-1.293 0.879-2.121v-14c0-0.828-0.337-1.58-0.879-2.121s-1.293-0.879-2.121-0.879h-2v-1c0-0.552-0.448-1-1-1s-1 0.448-1 1v1h-6v-1c0-0.552-0.448-1-1-1s-1 0.448-1 1zM20 9h-16v-3c0-0.276 0.111-0.525 0.293-0.707s0.431-0.293 0.707-0.293h2v1c0 0.552 0.448 1 1 1s1-0.448 1-1v-1h6v1c0 0.552 0.448 1 1 1s1-0.448 1-1v-1h2c0.276 0 0.525 0.111 0.707 0.293s0.293 0.431 0.293 0.707zM4 11h16v9c0 0.276-0.111 0.525-0.293 0.707s-0.431 0.293-0.707 0.293h-14c-0.276 0-0.525-0.111-0.707-0.293s-0.293-0.431-0.293-0.707z"></path>
</symbol>

<symbol id="icon-heart-circle" viewBox="0 0 32 32">
<path d="M15.981 7.548c-2.56-3.012-6.833-3.84-10.033-1.073s-3.652 7.398-1.148 10.673c1.619 2.089 5.741 5.986 8.508 8.508 0.922 0.847 1.374 1.261 1.92 1.431 0.489 0.132 1.016 0.132 1.487 0 0.565-0.169 1.016-0.584 1.939-1.431 2.748-2.522 6.889-6.419 8.489-8.508 2.522-3.275 2.127-7.925-1.129-10.673-3.256-2.729-7.473-1.939-10.033 1.073z"></path>
</symbol>

<symbol id="search" viewBox="0 0 24 24">
<path d="M16.041 15.856c-0.034 0.026-0.067 0.055-0.099 0.087s-0.060 0.064-0.087 0.099c-1.258 1.213-2.969 1.958-4.855 1.958-1.933 0-3.682-0.782-4.95-2.050s-2.050-3.017-2.050-4.95 0.782-3.682 2.050-4.95 3.017-2.050 4.95-2.050 3.682 0.782 4.95 2.050 2.050 3.017 2.050 4.95c0 1.886-0.745 3.597-1.959 4.856zM21.707 20.293l-3.675-3.675c1.231-1.54 1.968-3.493 1.968-5.618 0-2.485-1.008-4.736-2.636-6.364s-3.879-2.636-6.364-2.636-4.736 1.008-6.364 2.636-2.636 3.879-2.636 6.364 1.008 4.736 2.636 6.364 3.879 2.636 6.364 2.636c2.125 0 4.078-0.737 5.618-1.968l3.675 3.675c0.391 0.391 1.024 0.391 1.414 0s0.391-1.024 0-1.414z"></path>
</symbol>

<symbol id="star" viewBox="0 0 32 32">
<path d="M32 12.408l-11.056-1.607-4.944-10.018-4.944 10.018-11.056 1.607 8 7.798-1.889 11.011 9.889-5.199 9.889 5.199-1.889-11.011 8-7.798z"></path>
</symbol>

<symbol id="heart" viewBox="0 0 24 24">
<path d="M20.133 5.317c0.88 0.881 1.319 2.031 1.319 3.184s-0.44 2.303-1.319 3.182l-8.133 8.133-8.133-8.133c-0.879-0.879-1.318-2.029-1.318-3.183s0.439-2.304 1.318-3.183 2.029-1.318 3.183-1.318 2.304 0.439 3.183 1.318l1.060 1.060c0.391 0.391 1.024 0.391 1.414 0l1.062-1.062c0.879-0.879 2.029-1.318 3.182-1.317s2.303 0.44 3.182 1.319zM21.547 3.903c-1.269-1.269-2.934-1.904-4.596-1.905s-3.327 0.634-4.597 1.903l-0.354 0.355-0.353-0.353c-1.269-1.269-2.935-1.904-4.597-1.904s-3.328 0.635-4.597 1.904-1.904 2.935-1.904 4.597 0.635 3.328 1.904 4.597l8.84 8.84c0.391 0.391 1.024 0.391 1.414 0l8.84-8.84c1.269-1.269 1.904-2.934 1.905-4.596s-0.634-3.327-1.905-4.598z"></path>
</symbol>

<symbol id="icon-person" viewBox="0 0 24 24">
<path d="M12 14.016q2.531 0 5.273 1.102t2.742 2.883v2.016h-16.031v-2.016q0-1.781 2.742-2.883t5.273-1.102zM12 12q-1.641 0-2.813-1.172t-1.172-2.813 1.172-2.836 2.813-1.195 2.813 1.195 1.172 2.836-1.172 2.813-2.813 1.172z"></path>
</symbol>

<symbol id="icon-plus" viewBox="0 0 24 24">
<path d="M5 13h6v6c0 0.552 0.448 1 1 1s1-0.448 1-1v-6h6c0.552 0 1-0.448 1-1s-0.448-1-1-1h-6v-6c0-0.552-0.448-1-1-1s-1 0.448-1 1v6h-6c-0.552 0-1 0.448-1 1s0.448 1 1 1z"></path>
</symbol>

<symbol id="icon-moon" viewBox="0 0 24 24">
<path d="M21.996 12.882c0.022-0.233-0.038-0.476-0.188-0.681-0.325-0.446-0.951-0.544-1.397-0.219-0.95 0.693-2.060 1.086-3.188 1.162-1.368 0.092-2.765-0.283-3.95-1.158-1.333-0.985-2.139-2.415-2.367-3.935s0.124-3.124 1.109-4.456c0.142-0.191 0.216-0.435 0.191-0.691-0.053-0.55-0.542-0.952-1.092-0.898-2.258 0.22-4.314 1.18-5.895 2.651-1.736 1.615-2.902 3.847-3.137 6.386-0.254 2.749 0.631 5.343 2.266 7.311s4.022 3.313 6.772 3.567 5.343-0.631 7.311-2.266 3.313-4.022 3.567-6.772zM19.567 14.674c-0.49 1.363-1.335 2.543-2.416 3.441-1.576 1.309-3.648 2.016-5.848 1.813s-4.108-1.278-5.417-2.854-2.016-3.648-1.813-5.848c0.187-2.032 1.117-3.814 2.507-5.106 0.782-0.728 1.71-1.3 2.731-1.672-0.456 1.264-0.577 2.606-0.384 3.899 0.303 2.023 1.38 3.934 3.156 5.247 1.578 1.167 3.448 1.668 5.272 1.545 0.752-0.050 1.496-0.207 2.21-0.465z"></path>
</symbol>

<symbol id="icon-sun" viewBox="0 0 32 32">
<path d="M16 26c1.105 0 2 0.895 2 2v2c0 1.105-0.895 2-2 2s-2-0.895-2-2v-2c0-1.105 0.895-2 2-2zM16 6c-1.105 0-2-0.895-2-2v-2c0-1.105 0.895-2 2-2s2 0.895 2 2v2c0 1.105-0.895 2-2 2zM30 14c1.105 0 2 0.895 2 2s-0.895 2-2 2h-2c-1.105 0-2-0.895-2-2s0.895-2 2-2h2zM6 16c0 1.105-0.895 2-2 2h-2c-1.105 0-2-0.895-2-2s0.895-2 2-2h2c1.105 0 2 0.895 2 2zM25.899 23.071l1.414 1.414c0.781 0.781 0.781 2.047 0 2.828s-2.047 0.781-2.828 0l-1.414-1.414c-0.781-0.781-0.781-2.047 0-2.828s2.047-0.781 2.828 0zM6.101 8.929l-1.414-1.414c-0.781-0.781-0.781-2.047 0-2.828s2.047-0.781 2.828 0l1.414 1.414c0.781 0.781 0.781 2.047 0 2.828s-2.047 0.781-2.828 0zM25.899 8.929c-0.781 0.781-2.047 0.781-2.828 0s-0.781-2.047 0-2.828l1.414-1.414c0.781-0.781 2.047-0.781 2.828 0s0.781 2.047 0 2.828l-1.414 1.414zM6.101 23.071c0.781-0.781 2.047-0.781 2.828 0s0.781 2.047 0 2.828l-1.414 1.414c-0.781 0.781-2.047 0.781-2.828 0s-0.781-2.047 0-2.828l1.414-1.414z"></path>
<path d="M16 8c-4.418 0-8 3.582-8 8s3.582 8 8 8c4.418 0 8-3.582 8-8s-3.582-8-8-8zM16 21c-2.761 0-5-2.239-5-5s2.239-5 5-5 5 2.239 5 5-2.239 5-5 5z"></path>
</symbol>

<symbol id="icon-upload" viewBox="0 0 24 24">
<path d="M11 14.414v6.586c0 0.552 0.448 1 1 1s1-0.448 1-1v-6.586l2.293 2.293c0.391 0.391 1.024 0.391 1.414 0s0.391-1.024 0-1.414l-4-4c-0.092-0.092-0.202-0.166-0.324-0.217s-0.253-0.076-0.383-0.076c-0.256 0-0.512 0.098-0.707 0.293l-4 4c-0.391 0.391-0.391 1.024 0 1.414s1.024 0.391 1.414 0zM20.869 19.268c1.454-0.793 2.451-2.102 2.884-3.574s0.305-3.112-0.488-4.566c-0.679-1.245-1.737-2.155-2.959-2.663-0.724-0.301-1.505-0.46-2.299-0.465h-0.527c-0.725-2.057-2.144-3.708-3.917-4.752-1.983-1.168-4.415-1.581-6.821-0.959s-4.333 2.162-5.502 4.145-1.581 4.415-0.959 6.821c0.372 1.437 1.073 2.709 1.975 3.713 0.369 0.411 1.002 0.444 1.412 0.075s0.444-1.002 0.075-1.412c-0.688-0.765-1.235-1.75-1.526-2.877-0.484-1.872-0.164-3.761 0.746-5.305s2.407-2.74 4.279-3.224 3.761-0.164 5.305 0.746 2.74 2.407 3.224 4.279c0.116 0.435 0.506 0.75 0.969 0.75h1.253c0.536 0.004 1.061 0.111 1.545 0.312 0.815 0.339 1.517 0.943 1.97 1.773 0.529 0.97 0.615 2.061 0.325 3.044s-0.953 1.854-1.923 2.382c-0.485 0.264-0.664 0.872-0.399 1.357s0.872 0.664 1.357 0.399z"></path>
</symbol>

<symbol id="icon-paw" viewBox="0 0 32 32">
<path fill="#fff4df" style="fill: var(--color1, #fff4df)" d="M16 0c8.837 0 16 7.163 16 16s-7.163 16-16 16c-8.837 0-16-7.163-16-16s7.163-16 16-16z"></path>
<path fill="#f6b83d" style="fill: var(--color2, #f6b83d)" d="M14.249 10.499c-0.536 0-1.002 0.301-1.299 0.72-0.296 0.414-0.452 0.951-0.452 1.529s0.155 1.115 0.452 1.529c0.296 0.419 0.762 0.72 1.299 0.72 0.532 0 0.998-0.306 1.294-0.72s0.456-0.951 0.456-1.529c0-0.579-0.16-1.115-0.456-1.534-0.296-0.414-0.762-0.715-1.294-0.715zM16 12.748c0 0.579 0.155 1.115 0.452 1.529 0.296 0.419 0.762 0.72 1.294 0.72 0.536 0 1.002-0.306 1.299-0.72s0.452-0.951 0.452-1.529c0-0.579-0.155-1.115-0.452-1.534-0.296-0.414-0.762-0.715-1.299-0.715-0.532 0-0.998 0.301-1.294 0.72-0.296 0.414-0.452 0.951-0.452 1.529zM14.249 11.496c0.155 0 0.325 0.080 0.485 0.296 0.155 0.221 0.264 0.569 0.264 0.955s-0.108 0.734-0.264 0.951c-0.16 0.221-0.329 0.301-0.485 0.301-0.16 0-0.329-0.080-0.485-0.301-0.155-0.216-0.268-0.565-0.268-0.951s0.113-0.734 0.268-0.955c0.155-0.216 0.325-0.296 0.485-0.296zM17.746 11.496c0.16 0 0.329 0.080 0.489 0.296 0.151 0.221 0.264 0.569 0.264 0.955s-0.113 0.734-0.264 0.951c-0.16 0.221-0.329 0.301-0.489 0.301-0.155 0-0.325-0.080-0.485-0.301-0.155-0.216-0.264-0.565-0.264-0.951s0.108-0.734 0.264-0.955c0.16-0.216 0.329-0.296 0.485-0.296zM11.746 14c-0.532 0-0.998 0.301-1.294 0.715s-0.452 0.951-0.452 1.534c0 0.579 0.155 1.115 0.452 1.529s0.762 0.72 1.294 0.72c0.536 0 1.002-0.306 1.299-0.72s0.452-0.951 0.452-1.529c0-0.584-0.155-1.12-0.452-1.534s-0.762-0.715-1.299-0.715zM20.249 14c-0.536 0-1.002 0.301-1.299 0.715s-0.452 0.951-0.452 1.534c0 0.579 0.155 1.115 0.452 1.529s0.762 0.72 1.299 0.72c0.532 0 0.998-0.306 1.294-0.72s0.456-0.951 0.456-1.529c0-0.584-0.16-1.12-0.456-1.534s-0.762-0.715-1.294-0.715zM11.746 14.998c0.16 0 0.329 0.080 0.489 0.296 0.151 0.221 0.264 0.565 0.264 0.955 0 0.386-0.113 0.734-0.264 0.951-0.16 0.221-0.329 0.296-0.489 0.296-0.155 0-0.325-0.075-0.485-0.296-0.155-0.216-0.264-0.565-0.264-0.951 0-0.391 0.108-0.739 0.264-0.955 0.16-0.216 0.329-0.296 0.485-0.296zM20.249 14.998c0.155 0 0.325 0.080 0.485 0.296 0.155 0.221 0.264 0.565 0.264 0.955 0 0.386-0.108 0.734-0.264 0.951-0.16 0.221-0.329 0.296-0.485 0.296-0.16 0-0.329-0.075-0.485-0.296-0.155-0.216-0.268-0.565-0.268-0.951 0-0.391 0.113-0.739 0.268-0.955s0.325-0.296 0.485-0.296zM16 16c-0.668 0-1.134 0.428-1.365 0.809-0.226 0.381-0.362 0.696-0.499 0.828-0.075 0.080-0.56 0.259-1.059 0.518-0.254 0.127-0.508 0.301-0.72 0.56-0.216 0.264-0.362 0.626-0.362 1.035 0 0.96 0.791 1.746 1.751 1.746 0.433 0 0.885-0.136 1.327-0.264 0.447-0.127 0.927-0.235 0.927-0.235s0.475 0.108 0.918 0.235c0.447 0.127 0.899 0.264 1.332 0.264 0.96 0 1.751-0.791 1.751-1.751 0-0.395-0.151-0.758-0.362-1.012-0.212-0.259-0.466-0.414-0.72-0.551-0.499-0.264-0.988-0.475-1.059-0.546-0.122-0.118-0.254-0.442-0.489-0.828-0.226-0.381-0.701-0.809-1.369-0.809zM16 16.998c0.329 0 0.362 0.080 0.513 0.329 0.151 0.245 0.264 0.668 0.626 1.031 0.409 0.409 0.932 0.499 1.313 0.701 0.188 0.104 0.334 0.207 0.419 0.311 0.089 0.104 0.127 0.202 0.127 0.376 0 0.419-0.329 0.753-0.748 0.753-0.146 0-0.612-0.113-1.049-0.235-0.433-0.127-0.795-0.268-1.2-0.268-0.409 0-0.772 0.141-1.205 0.268-0.438 0.122-0.904 0.235-1.049 0.235-0.419 0-0.748-0.334-0.748-0.753 0-0.202 0.042-0.306 0.127-0.405 0.080-0.104 0.235-0.202 0.419-0.296 0.372-0.193 0.889-0.268 1.313-0.687 0.367-0.372 0.475-0.805 0.626-1.049 0.146-0.245 0.179-0.311 0.513-0.311h0.005z"></path>
</symbol>

<symbol id="icon-man" viewBox="0 0 32 32">
<path d="M18 3c0 1.657-1.343 3-3 3s-3-1.343-3-3c0-1.657 1.343-3 3-3s3 1.343 3 3z"></path>
<path d="M18 8h-6c-1.105 0-2 0.895-2 2v10h2v12h2.5v-12h1v12h2.5v-12h2v-10c0-1.105-0.895-2-2-2z"></path>
</symbol>

<symbol id="icon-woman" viewBox="0 0 32 32">
<path d="M18 3c0 1.657-1.343 3-3 3s-3-1.343-3-3c0-1.657 1.343-3 3-3s3 1.343 3 3z"></path>
<path d="M22.469 16l1.531-1.109-4.165-6.441c-0.185-0.281-0.499-0.45-0.835-0.45h-8c-0.336 0-0.65 0.169-0.835 0.45l-4.165 6.441 1.531 1.109 3.458-4.487 1.202 2.804-4.191 7.683h3.833l0.667 10h2v-10h1v10h2l0.667-10h3.833l-4.191-7.683 1.202-2.804 3.458 4.487z"></path>
</symbol>

<symbol id="icon-man-woman" viewBox="0 0 32 32">
<path d="M8 3c0 1.657-1.343 3-3 3s-3-1.343-3-3c0-1.657 1.343-3 3-3s3 1.343 3 3z"></path>
<path d="M26 3c0 1.657-1.343 3-3 3s-3-1.343-3-3c0-1.657 1.343-3 3-3s3 1.343 3 3z"></path>
<path d="M8 8h-6c-1.105 0-2 0.895-2 2v10h2v12h2.5v-12h1v12h2.5v-12h2v-10c0-1.105-0.895-2-2-2z"></path>
<path d="M30.469 16l1.531-1.109-4.165-6.441c-0.185-0.281-0.499-0.45-0.835-0.45h-8c-0.336 0-0.65 0.169-0.835 0.45l-4.165 6.441 1.531 1.109 3.458-4.487 1.202 2.804-4.191 7.683h3.833l0.667 10h2v-10h1v10h2l0.667-10h3.833l-4.191-7.683 1.202-2.804 3.458 4.487z"></path>
</symbol>

<symbol id="icon-male" viewBox="0 0 32 32">
<path d="M16 29.067c-4.267 0-7.733-3.467-7.733-7.733 0-3.867 2.933-7.067 6.667-7.6v-7.333l-3.6 3.6c-0.4 0.4-1.067 0.4-1.467 0s-0.4-1.067 0-1.467l5.333-5.333c0.133-0.133 0.267-0.133 0.267-0.267 0.267-0.133 0.533-0.133 0.8 0 0.133 0 0.267 0.133 0.267 0.267l5.333 5.333c0.4 0.4 0.4 1.067 0 1.467s-1.067 0.4-1.467 0l-3.6-3.6v7.333c3.733 0.533 6.667 3.733 6.667 7.6 0.267 4.267-3.2 7.733-7.467 7.733zM16 15.733c-3.067 0-5.733 2.533-5.733 5.733s2.533 5.733 5.733 5.733c3.067 0 5.733-2.533 5.733-5.733s-2.667-5.733-5.733-5.733z"></path>
</symbol>

<symbol id="icon-female" viewBox="0 0 32 32">
<path d="M16 29.067c-0.533 0-1.067-0.4-1.067-1.067v-3.067h-2.933c-0.533 0-1.067-0.4-1.067-1.067s0.4-1.067 1.067-1.067h3.067v-4.667c-3.733-0.533-6.667-3.733-6.667-7.6 0-4.267 3.467-7.733 7.733-7.733s7.733 3.467 7.733 7.733c0 3.867-2.933 7.067-6.667 7.6v4.667h2.8c0.533 0 1.067 0.4 1.067 1.067s-0.4 1.067-1.067 1.067h-3.067v3.067c0.133 0.533-0.4 1.067-0.933 1.067zM16 5.067c-3.067 0-5.6 2.533-5.6 5.6s2.533 5.733 5.733 5.733c3.067 0 5.733-2.533 5.733-5.733s-2.8-5.6-5.867-5.6z"></path>
</symbol>

<symbol id="icon-male-female" viewBox="0 0 32 32">
<path d="M11.693 10.32c-0.96-0.373-2.013-0.427-3-0.133-0.987 0.28-1.853 0.893-2.467 1.72-0.6 0.827-0.92 1.827-0.893 2.853 0.013 1.027 0.373 2.027 1.013 2.827 0.653 0.8 1.533 1.36 2.533 1.613 1 0.24 2.053 0.147 2.987-0.267 0.947-0.413 1.72-1.12 2.213-2.027 0.493-0.893 0.68-1.933 0.52-2.947-0.013-0.093-0.013-0.187 0.013-0.267s0.053-0.16 0.107-0.24c0.053-0.067 0.12-0.12 0.2-0.173 0.067-0.040 0.147-0.067 0.24-0.080 0.080-0.013 0.173-0.013 0.253 0 0.093 0.027 0.173 0.067 0.24 0.12s0.133 0.107 0.173 0.187c0.053 0.080 0.080 0.16 0.093 0.24 0.2 1.307-0.040 2.64-0.667 3.8-0.64 1.16-1.64 2.080-2.853 2.613-1.2 0.52-2.56 0.64-3.84 0.333-1.28-0.32-2.427-1.053-3.253-2.080s-1.28-2.307-1.307-3.627c-0.027-1.32 0.373-2.613 1.16-3.667 0.773-1.067 1.893-1.853 3.16-2.213 1.267-0.373 2.627-0.307 3.853 0.173 0.080 0.027 0.16 0.080 0.227 0.133 0.053 0.067 0.107 0.133 0.147 0.213s0.053 0.173 0.053 0.253c0 0.093-0.013 0.187-0.040 0.267s-0.080 0.16-0.147 0.213c-0.053 0.067-0.133 0.12-0.213 0.16-0.080 0.027-0.16 0.053-0.253 0.053s-0.173-0.027-0.253-0.053z"></path>
<path d="M9.32 26v-5.333c0-0.187 0.080-0.347 0.2-0.48 0.12-0.12 0.293-0.187 0.467-0.187 0.187 0 0.347 0.067 0.48 0.187 0.12 0.133 0.187 0.293 0.187 0.48v5.333c0 0.173-0.067 0.333-0.187 0.467-0.133 0.12-0.293 0.2-0.48 0.2-0.173 0-0.347-0.080-0.467-0.2-0.12-0.133-0.2-0.293-0.2-0.467z"></path>
<path d="M7.32 22.667c0-0.187 0.080-0.347 0.2-0.48 0.12-0.12 0.293-0.187 0.467-0.187h4c0.173 0 0.347 0.067 0.48 0.187 0.12 0.133 0.187 0.293 0.187 0.48 0 0.173-0.067 0.347-0.187 0.467-0.133 0.12-0.307 0.2-0.48 0.2h-4c-0.173 0-0.347-0.080-0.467-0.2s-0.2-0.293-0.2-0.467zM19.253 10.173c-0.733-0.2-1.52-0.227-2.267-0.067s-1.44 0.507-2.027 1.013c-0.587 0.493-1.040 1.133-1.32 1.84-0.28 0.72-0.373 1.493-0.28 2.253 0.013 0.093 0 0.173-0.027 0.267-0.027 0.080-0.067 0.16-0.12 0.227s-0.12 0.133-0.187 0.173c-0.080 0.040-0.16 0.067-0.253 0.080s-0.173 0-0.267-0.027c-0.080-0.013-0.16-0.053-0.227-0.12-0.067-0.053-0.12-0.12-0.173-0.187-0.040-0.080-0.067-0.173-0.080-0.253-0.147-1.307 0.133-2.64 0.8-3.773 0.68-1.133 1.707-2.013 2.933-2.507s2.587-0.56 3.853-0.2c1.28 0.36 2.387 1.12 3.187 2.187 0.787 1.053 1.2 2.347 1.187 3.667s-0.48 2.6-1.293 3.64c-0.813 1.027-1.96 1.773-3.24 2.093s-2.627 0.213-3.84-0.307c-0.080-0.040-0.147-0.080-0.213-0.147s-0.107-0.133-0.147-0.213c-0.067-0.173-0.053-0.36 0.013-0.52s0.2-0.28 0.36-0.347c0.173-0.067 0.347-0.067 0.52 0 0.587 0.253 1.213 0.387 1.853 0.387s1.267-0.133 1.853-0.4c0.587-0.253 1.107-0.627 1.547-1.093s0.773-1.013 0.987-1.613c0.213-0.6 0.293-1.24 0.253-1.88s-0.213-1.253-0.507-1.827c-0.293-0.56-0.707-1.067-1.2-1.467s-1.067-0.707-1.68-0.88z"></path>
<path d="M21.853 11.467c-0.133-0.12-0.2-0.293-0.2-0.467s0.067-0.347 0.2-0.467l4.987-5c0.067-0.067 0.147-0.12 0.227-0.147 0.080-0.040 0.16-0.053 0.253-0.053 0.093-0.013 0.173 0.013 0.253 0.040 0.093 0.040 0.16 0.080 0.227 0.147 0.053 0.067 0.107 0.133 0.147 0.227 0.027 0.080 0.053 0.16 0.040 0.253 0 0.093-0.013 0.173-0.053 0.253-0.027 0.080-0.080 0.16-0.147 0.213l-5 5c-0.12 0.133-0.293 0.2-0.467 0.2s-0.347-0.067-0.467-0.2z"></path>
<path d="M27.267 10c-0.093 0-0.173-0.013-0.253-0.053s-0.16-0.080-0.213-0.147c-0.067-0.067-0.107-0.133-0.147-0.213-0.027-0.093-0.040-0.173-0.040-0.267l0.027-2.64-2.64 0.027c-0.187 0-0.347-0.067-0.48-0.187s-0.2-0.293-0.2-0.467c0-0.173 0.067-0.347 0.187-0.48 0.12-0.12 0.293-0.2 0.467-0.2l4.013-0.040-0.040 4.013c0 0.080-0.027 0.173-0.053 0.253-0.040 0.080-0.093 0.147-0.147 0.213-0.067 0.053-0.147 0.107-0.227 0.133-0.080 0.040-0.16 0.053-0.253 0.053z"></path>
</symbol>

<symbol id="icon-check" viewBox="0 0 24 24">
<path d="M19.293 5.293l-10.293 10.293-4.293-4.293c-0.391-0.391-1.024-0.391-1.414 0s-0.391 1.024 0 1.414l5 5c0.391 0.391 1.024 0.391 1.414 0l11-11c0.391-0.391 0.391-1.024 0-1.414s-1.024-0.391-1.414 0z"></path>
</symbol>

</defs>
</svg>