<svg width="23.000000" height="23.000000" viewBox="0 0 23 23" fill="none" xmlns="http://www.w3.org/2000/svg" xmlns:xlink="http://www.w3.org/1999/xlink">
	<desc>
			Created with Pixso.
	</desc>
	<defs>
		<clipPath id="clip55838_1021">
			<rect id="heart-circle" width="23.000000" height="23.000000" fill="white" fill-opacity="0"/>
		</clipPath>
	</defs>
	<rect id="heart-circle" width="23.000000" height="23.000000" fill="#FFFFFF" fill-opacity="0"/>
	<g clip-path="url(#clip55838_1021)">
		<path id="Icon" d="M11.49 5.43C9.65 3.26 6.58 2.67 4.28 4.66C1.97 6.65 1.65 9.98 3.46 12.33C4.62 13.83 7.59 16.63 9.57 18.44C10.23 19.04 10.56 19.35 10.96 19.47C11.29 19.57 11.68 19.57 12.02 19.47C12.42 19.35 12.75 19.04 13.41 18.44C15.39 16.63 18.36 13.83 19.52 12.33C21.33 9.98 21.04 6.63 18.7 4.66C16.36 2.69 13.33 3.26 11.49 5.43Z" fill="#F6B83D" fill-opacity="1.000000" fill-rule="evenodd"/>
	</g>
</svg>
